<svg width="233" height="232" viewBox="0 0 233 232" fill="none" xmlns="http://www.w3.org/2000/svg">
<path d="M116.54 231.893C180.473 231.893 232.301 180.006 232.301 116C232.301 51.9941 180.473 0.106934 116.54 0.106934C52.6064 0.106934 0.778351 51.9941 0.778351 116C0.778351 180.006 52.6064 231.893 116.54 231.893Z" fill="white"/>
<path d="M103.373 121.317V147.472H77.2484V173.634H103.373H129.505V147.472V121.317H103.373Z" fill="black"/>
<path d="M51.1237 95.2014V121.317V121.364V147.472V173.634H77.2484V147.472V121.364V121.317V95.2014H51.1237Z" fill="black"/>
<path d="M129.498 42.9312H103.373V69.0856H129.498V42.9312Z" fill="black"/>
<path d="M155.754 147.472H129.629V173.626H155.754V147.472Z" fill="#0037FF"/>
<path d="M155.838 95.2014V121.317V121.364V147.472V173.634H181.963V147.472V121.364V121.317V95.2014H155.838Z" fill="#0037FF"/>
<path d="M77.2407 69.0933V95.2478H103.365V69.0933H77.2407Z" fill="black"/>
<path d="M129.621 69.0857V95.2402H155.746V69.0857H129.621Z" fill="#0037FF"/>
</svg>
