<svg width="232" height="232" viewBox="0 0 232 232" fill="none" xmlns="http://www.w3.org/2000/svg">
<path d="M116.239 232C180.172 232 232 180.113 232 116.107C232 52.1007 180.172 0.213623 116.239 0.213623C52.3058 0.213623 0.477783 52.1007 0.477783 116.107C0.477783 180.113 52.3058 232 116.239 232Z" fill="white"/>
<path d="M153.194 134.575L134.717 116.076L116.239 134.575L134.717 153.066L153.194 171.564L171.664 153.066L153.194 134.575Z" fill="#0037FF"/>
<path d="M153.194 60.595L134.717 79.086L116.239 97.5848L134.717 116.076L153.194 97.5848L171.664 79.086L153.194 60.595Z" fill="#0037FF"/>
<path d="M97.7689 79.1477L79.2912 60.6489L60.8213 79.1477L79.2912 97.6387L97.7689 116.137L116.239 97.6387L97.7689 79.1477Z" fill="black"/>
<path d="M97.7689 116.137L79.2912 134.636L60.8213 153.127L79.2912 171.626L97.7689 153.127L116.239 134.636L97.7689 116.137Z" fill="black"/>
</svg>
