<svg width="232" height="232" viewBox="0 0 232 232" fill="none" xmlns="http://www.w3.org/2000/svg">
<path d="M115.761 231.893C179.694 231.893 231.522 180.006 231.522 116C231.522 51.9941 179.694 0.106934 115.761 0.106934C51.828 0.106934 0 51.9941 0 116C0 180.006 51.828 231.893 115.761 231.893Z" fill="white"/>
<path d="M50.3376 50.6563V76.8108H76.4623V50.6563H50.3376Z" fill="black"/>
<path d="M50.3454 155.174V181.328H76.4701V155.174H50.3454Z" fill="black"/>
<path d="M155.06 155.174V181.328H181.185V155.174H155.06Z" fill="black"/>
<path d="M155.052 50.6563V76.8108H181.177V50.6563H155.052Z" fill="black"/>
<path d="M128.719 155.189H102.595V181.344H128.719V155.189Z" fill="#0037FF"/>
<path d="M102.587 129.035H76.4623V155.189H102.587V129.035Z" fill="#0037FF"/>
<path d="M154.967 129.035H128.843V155.189H154.967V129.035Z" fill="#0037FF"/>
<path d="M50.3376 102.927V129.081H76.4623V102.927H50.3376Z" fill="#0037FF"/>
<path d="M128.719 50.6487H102.595V76.8032H128.719V50.6487Z" fill="#0037FF"/>
<path d="M181.177 102.919H155.052V129.073H181.177V102.919Z" fill="#0037FF"/>
<path d="M76.4623 76.8109V102.965H102.587V76.8109H76.4623Z" fill="#0037FF"/>
<path d="M128.843 76.8109V102.965H154.967V76.8109H128.843Z" fill="#0037FF"/>
</svg>
