<svg width="232" height="232" viewBox="0 0 232 232" fill="none" xmlns="http://www.w3.org/2000/svg">
<path d="M116.086 231.786C180.019 231.786 231.847 179.899 231.847 115.893C231.847 51.8871 180.019 0 116.086 0C52.1527 0 0.324646 51.8871 0.324646 115.893C0.324646 179.899 52.1527 231.786 116.086 231.786Z" fill="white"/>
<path d="M83.8018 171.227L86.4151 168.619L138.533 116.441L141.247 113.725L141.332 95.1409L122.777 95.2258L120.256 97.7494L68.1378 149.927L65.3318 152.736L65.3395 171.227H83.8018Z" fill="#0037FF"/>
<path d="M115.207 68.9863H89.0823V95.1408H115.207H141.332V68.9863H115.207Z" fill="black"/>
<path d="M141.332 95.1409V121.295V147.458H167.464V121.295V95.1409H141.332Z" fill="black"/>
<path d="M141.332 68.9864V95.1409H167.456V68.9864H141.332Z" fill="#0037FF"/>
</svg>
